<svg width="801" height="800" viewBox="0 0 801 800" fill="none" xmlns="http://www.w3.org/2000/svg">
<path d="M674.872 594C681.495 600.386 686.217 607.212 687.655 615.267C690.78 632.767 693.297 646.267 687.655 667.767C669.155 738.267 551.288 799.767 386.155 799.767C221.022 799.767 87.1553 737.892 87.1553 665.267C87.1553 646.989 81.6555 613.767 94.6553 605.767C95.5793 604.276 96.9914 602.709 98.8535 601.077C167.409 681.029 269.671 731.767 383.904 731.767C501.472 731.766 606.36 678.023 674.872 594Z" fill="#303B41"/>
<path d="M659.715 618.767C660.706 619.097 661.696 619.427 662.717 619.767C665.326 625.255 665.771 631.251 664.03 637.063C651.98 666.166 612.326 682.956 585.339 694.148C500.771 727.777 405.013 734.815 304.486 722.767C303.735 722.67 302.984 722.574 302.21 722.475C293.931 721.411 285.696 720.172 277.469 718.767C276.566 718.619 275.663 718.471 274.732 718.319C233.671 711.597 193.201 700.48 156.391 680.767C155.791 680.45 155.191 680.134 154.573 679.808C137.869 670.937 117.63 657.56 111.362 638.767C111.051 632.767 111.858 627.568 113.363 621.767C114.024 621.767 114.684 621.767 115.364 621.767C116.846 623.271 116.846 623.271 118.554 625.329C165.878 680.554 254.318 698.244 323.519 703.969C326.448 704.194 329.377 704.413 332.308 704.61C334.024 704.732 335.74 704.868 337.454 705.01C347.025 705.767 356.549 705.994 366.143 706.075C367.381 706.087 367.381 706.087 368.644 706.099C374.901 706.155 381.158 706.186 387.415 706.204C388.794 706.208 388.794 706.208 390.2 706.212C419.221 706.279 447.495 705.316 476.138 700.203C478.59 699.768 481.044 699.352 483.5 698.94C521.604 692.506 559.86 682.806 594.673 665.767C595.403 665.411 596.134 665.056 596.886 664.69C620.234 653.195 641.878 637.708 659.715 618.767Z" fill="#4B6675"/>
<path d="M111.361 668.767C114.41 670.117 116.379 671.603 118.643 674.036C122.141 677.627 125.832 680.585 129.936 683.454C130.661 683.962 131.387 684.469 132.135 684.992C147.783 695.681 164.819 703.824 182.407 710.767C183.23 711.096 184.053 711.425 184.902 711.764C247.547 736.543 315.739 744.878 382.598 746.892C385.329 746.978 388.059 747.065 390.789 747.153C397.377 747.364 403.965 747.568 410.554 747.767C410.318 748.264 410.082 748.761 409.838 749.273C404.702 760.087 399.593 770.912 394.544 781.767C387.145 781.818 379.747 781.853 372.349 781.876C369.844 781.886 367.339 781.9 364.833 781.917C348.27 782.03 331.97 781.492 315.493 779.767C314.255 779.641 313.018 779.515 311.744 779.385C308.965 779.084 306.194 778.752 303.422 778.392C302.437 778.264 301.452 778.137 300.438 778.006C258.156 772.386 215.048 762.198 176.403 743.767C175.69 743.432 174.976 743.098 174.241 742.753C159.153 735.642 145.327 727.289 132.375 716.767C131.354 715.947 130.334 715.127 129.283 714.282C120.337 706.554 112.45 695.645 110.36 683.767C110.268 681.747 110.23 679.725 110.235 677.704C110.233 676.661 110.23 675.618 110.228 674.544C110.36 671.767 110.36 671.767 111.361 668.767Z" fill="#4B6675"/>
<path d="M143.96 134C143.96 134 186.641 131.657 213.004 125C215.945 124.258 217.48 123.161 220.509 123C224.298 122.799 226.561 123.432 230.015 125C233.076 126.39 234.341 127.971 237.02 130L237.241 130.167C240.315 132.495 242.112 133.856 245.025 136.5C249.015 140.122 251.403 142.113 254.531 146.5C257.119 150.13 260.035 156.5 260.035 156.5C260.035 156.5 267.91 152.725 273.043 150.5C280.366 147.327 284.465 145.468 292.055 143C302.737 139.527 309.048 138.648 320.073 136.5C329.595 134.645 334.969 133.744 344.589 132.5C355.098 131.142 361.023 130.513 371.607 130C383.316 129.432 389.914 129.489 401.626 130C412.99 130.496 419.389 130.858 430.645 132.5C438.911 133.706 443.484 134.777 451.658 136.5C463.853 139.072 482.678 144 482.678 144C482.678 144 487.64 135.09 491.684 130C495.379 125.349 497.352 122.448 502.191 119C507.247 115.398 510.691 114.064 516.7 112.5L516.953 112.434C520.624 111.478 522.844 110.901 526.707 111C530.078 111.087 535.212 112.5 535.212 112.5C535.212 112.5 541.901 114.698 546.219 116C560.102 120.187 567.877 123.021 582.242 125C600.437 127.506 608.905 126 627.271 126C636.65 126 641.97 125.923 651.287 127C660.045 128.013 667.103 126.762 675.302 130C678.716 131.349 680.269 133.023 683.808 134C686.471 134.736 688.066 134.698 690.812 135C700.135 136.026 705.462 134.514 714.828 135C725.429 135.55 731.838 134.46 741.845 138C747.859 140.127 751.185 141.764 756.354 145.5C762.513 149.951 766.102 152.9 769.863 159.5C771.852 162.991 772.557 165.27 773.701 168.968L773.866 169.5C776.031 176.49 776.33 180.78 776.828 187.925L776.868 188.5C777.685 200.213 776.745 206.909 774.866 218.5C773.094 229.439 771.303 235.465 767.862 246C765.463 253.343 764.206 257.538 760.857 264.5C758.432 269.543 757.278 272.574 753.853 277C751.907 279.515 750.505 280.663 748.349 283C745.819 285.743 744.263 287.158 741.845 290C734.896 298.171 732.111 303.662 726.835 313C725.632 315.131 725.033 316.367 723.834 318.5C721.946 321.858 720.542 323.55 718.83 327C715.975 332.755 715.766 336.558 713.327 342.5C711.866 346.059 711.572 348.378 709.324 351.5C707.549 353.966 706.286 355.223 703.821 357C701.341 358.788 699.681 359.432 696.816 360.5C693.797 361.626 691.98 361.916 688.811 362.5C685.522 363.106 683.639 363.768 680.305 363.5C678.319 363.34 677.236 362.981 675.302 362.5C673.323 362.008 672.284 361.471 670.299 361C667.986 360.451 664.295 360 664.295 360C664.295 360 664.81 363.069 665.296 365C666.049 367.994 666.75 369.596 667.797 372.5C668.72 375.059 669.168 376.527 670.299 379C671.494 381.614 672.324 383.011 673.787 385.476L673.801 385.5C676.096 389.366 677.542 391.453 680.305 395C683.366 398.928 684.977 401.321 688.811 404.5C691.522 406.748 693.385 407.547 696.316 409.5C698.074 410.672 699.691 410.714 700.819 412.5C701.478 413.545 701.705 414.27 701.819 415.5C702.008 417.53 701.418 418.783 700.318 420.5C699.199 422.249 698.103 422.942 696.316 424C694.029 425.354 692.395 425.376 689.812 426C685.783 426.974 683.425 427.053 679.305 427.5C677.159 427.733 675.959 427.939 673.801 428C672.825 428.028 671.3 428 671.3 428C671.3 428 672.849 432.258 673.801 435C676.091 441.592 677.825 445.181 679.305 452C681.135 460.431 681.199 465.374 681.306 474C681.43 483.988 680.861 489.633 679.305 499.5L679.255 499.816C677.818 508.932 676.981 514.24 673.801 523C671.298 529.898 672.197 536.406 665.796 540C662.489 541.857 659.927 543.08 656.29 542C653.742 541.244 652.637 539.906 650.786 538C648.824 535.979 646.784 532 646.784 532C646.784 532 645.564 540.596 644.282 546C641.845 556.276 639.581 561.856 635.276 571.5C629.57 584.285 625.727 591.344 617.265 602.5C609.251 613.066 603.485 617.993 593.75 627C586.425 633.777 581.694 636.869 574.237 643.5C569.279 647.91 561.729 655 561.729 655C561.729 655 576.043 648.523 584.744 643.5C592.206 639.193 596.135 636.349 603.256 631.5C610.201 626.771 620.767 619 620.767 619V638L582.242 682L498.188 712L381.113 730L287.052 712L203.999 682L126.949 624L141.959 614C141.959 614 158.407 625.78 169.476 632.5C176.581 636.813 180.537 639.318 187.988 643C194.106 646.023 203.999 650 203.999 650C203.999 650 188.948 638.597 179.983 630.5C171.373 622.724 166.543 618.288 158.97 609.5C148.994 597.924 143.481 591.068 136.455 577.5C131.985 568.869 129.924 563.752 126.949 554.5C123.701 544.398 121.319 538.604 120.945 528C120.703 521.145 122.446 510.5 122.446 510.5C122.446 510.5 118.853 511.971 116.943 513.5C114.106 515.77 113.205 517.826 111.439 521C109.993 523.599 110.965 526.431 108.437 528C107.229 528.75 106.353 528.887 104.935 529C102.286 529.211 100.595 528.542 98.4306 527C95.0857 524.617 95.4166 521.326 93.9277 517.5C89.9688 507.327 89.9318 500.869 88.9245 490C87.8613 478.529 86.793 471.822 88.9245 460.5C90.1702 453.883 91.7183 450.361 93.9277 444C97.1167 434.819 103.434 421 103.434 421C103.434 421 95.1875 421.371 89.9251 421C83.6125 420.555 79.5061 421.462 73.9148 418.5C71.8075 417.384 70.4333 416.835 68.9116 415C67.4052 413.183 66.3226 411.858 66.41 409.5C66.4908 407.318 67.41 406.086 68.9116 404.5C71.0814 402.209 73.621 402.965 76.4164 401.5C80.9846 399.106 83.0953 396.956 86.9232 393.5C93.5135 387.551 96.684 383.5 101.433 376C105.17 370.097 108.144 366.865 109.438 360C109.729 358.453 110.642 357.408 109.938 356C109.308 354.741 108.297 354.366 106.936 354C104.785 353.421 103.588 354.936 101.433 355.5C94.6466 357.277 90.9209 359.037 83.9212 359.5C78.0594 359.888 74.4814 360.367 68.9116 358.5C65.3482 357.306 60.4061 354 60.4061 354C60.4061 354 57.6125 347.927 55.9032 344C53.4571 338.381 52.6361 334.984 49.8993 329.5C44.5056 318.692 38.746 314.272 32.388 304C22.0901 287.364 15.6161 278.041 9.37321 259.5C3.48197 242.004 1.50876 231.449 0.867732 213C0.240261 194.941 -2.30047 183.12 5.87095 167C11.9354 155.037 16.9199 147.57 28.8858 141.5C35.2277 138.283 39.454 138.041 46.3971 136.5C66.0665 132.135 77.7869 134.461 97.9303 134C115.901 133.589 143.96 134 143.96 134Z" fill="#120A00"/>
<path d="M214.868 167H215.868C215.868 167 215.609 171.27 215.368 174C215.196 175.955 215.138 177.056 214.868 179C214.569 181.162 214.275 182.355 213.868 184.5C213.312 187.435 213.075 189.098 212.368 192C211.696 194.762 211.149 196.266 210.368 199C209.587 201.734 209.247 203.296 208.368 206C206.744 211 205.442 213.669 203.368 218.5C201.335 223.237 200.186 225.895 197.868 230.5C196.376 233.465 195.437 235.074 193.868 238C192.506 240.541 191.795 241.995 190.368 244.5C187.152 250.148 184.979 253.095 181.368 258.5C177.939 263.635 176.077 266.563 172.368 271.5C170.281 274.28 169.048 275.791 166.868 278.5C162.872 283.467 160.627 286.256 156.368 291C153.323 294.392 151.495 296.183 148.368 299.5C145.052 303.018 143.331 305.126 139.868 308.5C136.38 311.9 134.257 313.701 130.612 316.794L130.368 317C127.299 319.604 125.733 321.29 122.368 323.5C119.229 325.562 117.265 326.396 113.868 328C111.179 329.27 109.726 330.177 106.868 331C104.955 331.551 103.857 331.89 101.868 332C101.089 332.043 100.649 332 99.8684 332H96.8684C96.0874 332 95.4207 332.552 94.8684 332C94.0874 331.219 96.0227 330.71 96.8684 330C97.9466 329.094 98.6969 328.781 99.8684 328C101.04 327.219 101.66 326.723 102.868 326C104.742 324.879 105.989 324.611 107.868 323.5C109.92 322.287 110.952 321.417 112.868 320C114.658 318.676 115.608 317.863 117.368 316.5C119.901 314.539 121.417 313.56 123.868 311.5C126.513 309.278 127.875 307.891 130.368 305.5C133.159 302.825 134.673 301.271 137.368 298.5C140.547 295.232 142.323 293.392 145.368 290C149.627 285.256 151.91 282.497 155.868 277.5C159.506 272.908 161.504 270.295 164.868 265.5C168.896 259.761 170.995 256.331 174.571 250.486L174.868 250C178.522 244.03 180.523 240.648 183.868 234.5C188.042 226.829 190.124 222.389 193.868 214.5C196.904 208.106 198.522 204.481 201.368 198C204.183 191.591 205.586 187.923 208.368 181.5C209.724 178.371 211.095 176.821 211.868 173.5C212.138 172.343 211.958 171.615 212.368 170.5C212.949 168.924 214.868 167 214.868 167Z" fill="#303B41"/>
<path d="M517.868 153C518.176 152.542 518.868 152 518.868 152H519.868C519.868 152 521.143 152.846 521.868 153.5C522.278 153.87 522.502 154.087 522.868 154.5C524.202 156.004 524.309 157.291 525.368 159C526.11 160.197 526.634 160.799 527.368 162C528.963 164.608 529.427 166.305 530.868 169C532.353 171.777 533.358 173.237 534.868 176C537.8 181.364 539.135 184.533 541.868 190L549.368 205C551.321 208.905 552.392 211.107 554.368 215C558.558 223.255 560.819 227.937 565.368 236C569.284 242.942 571.579 246.783 575.868 253.5C578.899 258.247 580.645 260.881 583.868 265.5C586.349 269.056 587.769 271.03 590.368 274.5C593.038 278.063 594.565 280.041 597.368 283.5L597.475 283.631C599.329 285.92 600.402 287.243 602.368 289.5C604.275 291.688 605.416 292.852 607.368 295C609.321 297.148 610.368 298.396 612.368 300.5C614.651 302.902 615.992 304.19 618.368 306.5C621.439 309.485 623.083 311.253 626.368 314C629.904 316.956 632.042 318.432 635.868 321C637.982 322.419 639.175 323.208 641.368 324.5C643.476 325.742 644.746 326.283 646.868 327.5C648.844 328.633 649.835 329.475 651.868 330.5C654.848 332.002 656.698 332.46 659.868 333.5C661.805 334.135 662.927 334.377 664.868 335C666.044 335.377 666.995 335.127 667.868 336C668.486 336.617 668.868 338 668.868 338C668.868 338 667.038 338.062 665.868 338C664.296 337.917 663.43 337.695 661.868 337.5C660.306 337.305 659.426 337.227 657.868 337C654.723 336.542 652.953 336.266 649.868 335.5C646.691 334.712 644.914 334.198 641.868 333C639.673 332.136 638.445 331.619 636.368 330.5C634.127 329.293 632.978 328.425 630.868 327C627.858 324.967 626.23 323.736 623.368 321.5C619.113 318.175 616.878 316.118 612.868 312.5C609.279 309.261 607.301 307.404 603.868 304C599.847 300.013 597.603 297.756 593.868 293.5C588.638 287.54 586.167 283.812 581.368 277.5C579.005 274.391 577.592 272.71 575.368 269.5C572.87 265.893 571.693 263.722 569.368 260C566.21 254.944 564.391 252.138 561.368 247C558.753 242.553 554.868 235.5 554.868 235.5C552.659 231.432 551.467 229.126 549.368 225C548.181 222.665 547.554 221.336 546.368 219C544.076 214.483 542.604 212.046 540.368 207.5C538.749 204.208 537.976 202.297 536.368 199C535.22 196.645 534.54 195.343 533.368 193L531.368 189C530.392 187.047 529.797 185.976 528.868 184C528.05 182.26 527.659 181.253 526.868 179.5C525.718 176.952 525.084 175.517 523.868 173C522.919 171.034 522.282 169.983 521.368 168C520.306 165.695 519.728 164.388 518.868 162C518.45 160.838 518.164 160.199 517.868 159C517.584 157.847 517.368 157.188 517.368 156C517.368 154.812 517.206 153.986 517.868 153Z" fill="#303B41"/>
<path d="M386.617 0C593.028 0.000252695 760.357 165.655 760.357 370C760.357 574.345 593.028 740 386.617 740C180.206 740 12.876 574.345 12.876 370C12.876 165.655 180.206 0 386.617 0ZM386.617 29C196.232 29 41.8945 181.671 41.8945 370C41.8945 558.329 196.232 711 386.617 711C577.002 711 731.339 558.329 731.339 370C731.339 181.671 577.002 29.0003 386.617 29Z" fill="#303B41"/>
<path d="M356.222 401.375C359.099 404 359.099 404 359.787 407.187C359.099 410 359.099 410 356.097 412C353.769 412.261 353.769 412.261 350.999 412.275C349.44 412.289 349.44 412.289 347.85 412.303C346.728 412.303 345.605 412.302 344.449 412.301C343.292 412.305 342.136 412.309 340.945 412.314C338.495 412.319 336.046 412.32 333.596 412.316C329.858 412.312 326.121 412.336 322.384 412.361C320.003 412.363 317.623 412.364 315.242 412.363C313.571 412.377 313.571 412.377 311.865 412.391C305.85 412.355 301.315 412.043 296.058 409C294.87 406.562 294.87 406.562 295.057 404C306.643 388.254 341.397 393.329 356.222 401.375Z" fill="#4D6776"/>
<path d="M254.868 400L258.868 397.5L271.868 466.5L250.868 526L249.868 527.5L245.868 524L239.868 520.5L235.368 518.5L226.868 517.5L222.368 517L217.868 517.5L211.868 518.5L207.368 520L201.368 522.5L196.868 525.5L191.868 529L186.868 534L183.868 538L179.868 544.5L175.868 553L172.868 560.5L171.368 568L170.868 574V581V585V587L169.868 586L166.868 583L164.368 580L160.868 575L158.868 572L156.868 568L153.868 562L152.368 558.5L150.368 553L148.868 548L147.368 542.5L145.868 535L144.868 526L144.368 516.688V507L144.868 501L145.368 495L146.868 487L148.368 481L150.368 474.5L152.368 469L154.868 462.5L156.868 457L154.868 457.5L151.868 458.5L147.868 460L144.368 462L140.868 464L137.368 466.5L133.868 469.5L129.868 473L124.868 478L122.868 477L123.368 471.5L124.868 459L126.368 451L128.868 440L131.868 430.5L133.868 425L137.868 415.5L141.868 408L146.368 401L152.868 392L158.368 386L162.868 382L165.868 380.5L169.868 380L173.368 380.5L174.868 383L176.368 386L177.368 390.5L179.368 395L183.368 401L188.868 405L196.368 408L203.368 409.5L214.868 410.5L225.368 409.5L238.368 407L244.368 405L254.868 400Z" fill="#432B12"/>
<path d="M424.868 393.5L422.868 394L498.868 513.5L539.868 607.5L576.868 610L578.868 607.5L580.368 605.5L582.868 602.5L585.868 598.5L588.868 594L591.868 590L594.368 586L597.868 580L600.868 574L602.868 570L605.368 565L607.368 559L608.868 555L610.368 550L612.368 541L613.368 535L613.868 529V524V517.5V512L612.868 504L610.868 494L608.368 486L605.868 479L603.368 472.5L600.868 467.5L599.368 463.5L598.368 459.5L601.868 460L606.868 461.5L610.868 463L614.868 464.5L619.368 467L624.868 470L628.368 472.5L628.868 468L628.368 463L627.368 460.5L625.368 455L622.368 447L618.868 439.5L614.868 431.5L609.868 423.5L605.368 417.5L601.868 413L596.868 408L587.368 400L580.868 395.5L576.368 393L570.368 391L566.868 390.5L562.868 391L557.368 392L552.868 394.5L549.368 397.5L543.868 402L538.868 406L532.868 409.5L527.868 412.5L521.868 415L515.868 417L508.868 418.5L500.868 419L488.868 418.5L477.868 417L466.868 414L454.368 409L444.868 404.5L437.868 401L424.868 393.5Z" fill="#432B12"/>
<path d="M226.868 460L230.868 469L259.868 433L268.868 396L306.868 371L360.868 366L467.868 440L511.868 457L523.868 485L504.868 504.5L480.868 551L427.868 597L389.868 629L360.868 649H316.868L287.868 643L259.868 624L248.868 534.5L249.368 529L250.868 526L247.868 523L244.868 519L241.868 515L238.868 511L233.868 504.5L228.868 498L224.868 493L221.368 489L218.368 485L216.868 483L215.368 480.5L212.868 476L210.868 472L209.368 467L208.618 463V460L209.368 457L210.368 454.5L212.868 451.5L214.868 450L217.868 449H219.368L222.868 450L225.368 453.5L225.868 456L226.868 460Z" fill="black"/>
<path d="M325.294 531.023C326.08 531.016 326.866 531.008 327.676 531C332.298 531.015 336.019 531.516 340.366 533.273C340.04 534.073 339.713 534.872 339.377 535.695C333.443 550.6 326.898 570.484 333.361 586.273C334.352 586.768 334.352 586.768 335.363 587.273C335.51 586.723 335.657 586.173 335.808 585.605C336.307 583.76 336.812 581.917 337.321 580.074C337.888 578.008 338.453 575.941 338.999 573.869C347.145 543.02 347.145 543.02 358.428 535.996C367.722 531.225 378.86 530.704 388.96 533.461C395.482 535.798 400.292 538.966 403.407 545.273C406.388 562.526 396.84 581.72 387.717 595.883C386.045 598.137 384.287 600.203 382.393 602.273C381.58 603.177 380.768 604.081 379.931 605.012C368.996 616.581 356.103 623.83 340.045 624.512C324.732 624.866 313.24 622.278 301.599 611.688C290.951 600.385 288.743 586.53 289.087 571.719C289.569 560.398 293.367 550.158 300.715 541.461C308.912 534.635 314.434 530.917 325.294 531.023Z" fill="#CF7E6B"/>
<path d="M286.868 333C286.868 354.5 270.183 377 248.368 377C223.868 377 208.368 360.5 208.368 334.5C208.368 309.647 229.368 287 248.368 287C272.868 287 286.868 306 286.868 333Z" fill="white"/>
<path d="M284.868 334.356C284.868 352.75 271.053 372 252.989 372C232.703 372 219.868 357.883 219.868 335.639C219.868 314.376 237.257 295 252.989 295C273.276 295 284.868 311.256 284.868 334.356Z" fill="#5A9BFD"/>
<path d="M273.868 332.667C273.868 347 263.241 362 249.346 362C233.741 362 223.868 351 223.868 333.667C223.868 317.098 237.244 302 249.346 302C264.951 302 273.868 314.667 273.868 332.667Z" fill="black"/>
<ellipse cx="253.868" cy="320.5" rx="9" ry="9.5" fill="white"/>
<path d="M496.649 303.463C506.224 310.185 513.205 319.573 515.446 331.142C516.428 343.052 514.875 353.978 507.07 363.4C499.01 372.015 489.641 377.055 477.672 377.517C467.217 377.296 458.161 373.076 450.404 366.142C442.516 357.042 438.957 347.005 439.12 334.986C440.315 322.733 445.826 312.442 455.255 304.646C467.811 295.879 483.554 295.662 496.649 303.463Z" fill="#5A9BFD"/>
<path d="M487.5 310.241C494.881 315.303 500.262 322.371 501.989 331.082C502.746 340.05 501.548 348.276 495.532 355.371C489.32 361.857 482.098 365.652 472.873 366C464.815 365.833 457.835 362.656 451.855 357.435C445.776 350.583 443.032 343.026 443.157 333.976C444.079 324.75 448.327 317.002 455.594 311.132C465.273 304.531 477.407 304.367 487.5 310.241Z" fill="black"/>
<path d="M503.939 297.307C513.124 304.048 520.109 313.928 523.018 325.049C525.37 341.823 523.403 356.16 513.445 370.143C503.78 380.806 492.649 384.898 478.536 386.463C466.677 386.982 456.393 382.63 447.403 375.143C446.693 374.569 445.984 373.995 445.253 373.404C436.677 365.737 431.008 353.65 430.181 342.228C429.711 327.089 433.811 314.481 443.588 302.893C460.841 284.665 483.59 283.615 503.939 297.307ZM448.653 311.021C441.369 320.03 438.554 330.717 439.398 342.143C440.959 352.879 445.277 362.062 453.719 369.08C462.726 375.518 472.482 378.041 483.426 377.143C494.388 374.881 502.955 369.219 509.443 360.143C515.384 350.011 517.181 339.444 514.759 327.85C511.39 316.782 504.226 307.473 493.995 301.787C477.631 294.336 460.887 297.895 448.653 311.021Z" fill="white"/>
<ellipse cx="474.868" cy="325.5" rx="10" ry="10.5" fill="white"/>
<path d="M316.868 168.5L309.868 162L309.368 161.5L313.868 160L323.368 158L331.868 156.5L339.368 155.5L348.868 155L352.868 154L358.368 153L366.368 152.5L379.368 153H399.868H411.868L422.868 154L429.368 155.5L430.868 157L425.868 161L419.868 167.5L412.868 176L403.868 191L397.868 204L391.868 221L387.868 237.5L384.868 256L383.368 271L382.368 288.5V305L383.368 320L384.868 330.5L387.368 342L390.868 350L394.868 357.5L398.868 364.5L405.368 373.5L413.368 382.5L421.368 390L428.368 396L436.868 402.5L440.868 407L444.868 410L448.868 414L453.868 418L462.868 424L471.868 428.5L477.368 431.5L480.868 433.5L490.868 438.5L500.368 443L505.868 446.5L511.868 450.5L518.868 457L522.868 461.5L525.368 465L528.368 471.5L531.368 477.5L532.368 483.5L532.868 490L532.368 497.5L531.868 504L529.368 514.5L526.868 525L533.368 527.5L539.368 531.5L548.368 538.5L555.868 546L561.368 553L567.868 563L572.368 574L575.868 586L576.868 597V609.5L574.868 611L571.368 615L564.868 621L558.868 626.5L554.868 630L549.868 634L543.868 639L535.868 644L529.868 647.5L523.868 650.5L522.868 651L523.368 648L523.868 643L524.368 638V634L523.868 629L522.868 626H521.868L519.868 628L517.868 631L514.368 636L510.868 640L504.868 646L502.868 648L495.868 654L488.868 659L482.868 663L476.368 666.5L472.368 668.5L465.868 671.5L456.868 675L447.368 678L441.368 679.5L429.868 681.5L421.868 682.5L416.868 683H411.868V680.5L413.368 673.5L416.368 665.5L420.368 658L426.868 647.5L432.868 638.5L437.868 631.5L442.868 625.5L447.368 620.5L451.868 615.5L459.368 607L464.868 601L469.368 595.5L471.868 592L474.868 587L475.868 585L477.368 581.5L478.181 579.5L478.368 578L477.868 577.5L474.868 578L471.868 579.5L465.868 583L459.868 587L454.868 590.5L449.868 594L443.368 599L438.868 602.5L432.868 607L426.868 611.5L424.368 613.5L418.368 618L411.368 623L404.368 629L394.868 637L386.868 643L380.868 647.5L375.868 650.5L372.368 653L366.868 657L358.868 660.5L349.868 662.5L339.868 663H328.868L321.868 662L316.868 661L312.868 659.5L307.868 657.5L304.868 657H300.868V660L301.368 665.5L302.868 670L304.368 675L306.368 680L299.868 678.5L293.368 676.5L280.868 672L268.368 665.5L257.368 657L249.868 651L243.368 645L237.368 638L233.368 633L228.868 627L225.368 621L221.868 615L218.868 609L216.868 604.5L214.368 598.5L212.368 594L210.368 587.5L208.368 581.5L207.368 578L205.868 576.5L203.868 576L202.868 577L201.368 579.5L198.868 586L197.368 591L196.368 596L195.868 601V607V610.5L196.368 614L192.868 611L189.868 608.5L186.868 605L182.868 601.5L179.868 598L175.868 594L174.368 592L171.868 589L171.368 588L170.868 586V583V575.5L171.368 568L173.368 559L177.368 549.5L181.868 541L186.868 534L191.868 529L201.368 522.5L211.868 518.5L222.368 517L236.368 518.5L246.868 525.5L253.368 532.5L259.868 541L264.868 546L268.868 550.5L270.868 555L272.368 562L271.368 573L270.868 586.5L272.868 598L278.368 613L288.868 624.5L303.868 636.5L324.868 642.5L346.868 642L365.368 636.5L382.868 626L394.868 614L403.868 602L408.868 592.5L412.368 585L414.868 579L416.868 577L420.868 574L426.868 569.5L432.368 565L441.368 557L453.868 544L461.368 535L465.868 529L471.868 521L477.368 513L480.868 507.5L483.868 502.5L486.868 497L490.868 489.5L492.868 483.5L493.868 480L497.868 481L502.368 483L507.868 484L511.868 483L513.368 480L513.868 477V471L512.868 467L510.368 463L506.868 459L502.368 455.5L498.868 453.5L492.868 451L487.868 450.5L482.868 451L478.368 452.5L473.368 455.5L471.368 458V462L472.868 466L475.368 470L473.868 472L471.868 474L469.868 476L463.868 482.5L457.868 488L453.868 491L446.868 496L442.868 498L436.868 501L433.868 502.5L428.368 504.5L420.868 506.5L412.368 508L400.868 509L387.868 508L379.868 507L370.868 505L363.868 503L358.368 501L353.368 499L348.868 497L342.868 493.5L339.868 490.5L338.368 487.5L337.368 483L336.868 475L342.868 473.5L349.868 471L354.868 468.5L362.868 463.5L369.368 458.5L373.868 454L380.368 447L384.868 440L386.868 436L388.368 432L390.368 424L390.868 418V414L389.868 410L384.868 399L379.868 393L373.868 388L365.868 383.5L358.868 381L351.868 379L345.868 378L340.368 377.5L329.368 377L319.368 378L309.368 380L300.868 382.5L293.868 384.5L287.368 388L281.868 393L275.368 400.5L272.868 405L270.868 410.5L269.868 416L269.368 423L269.868 428L271.368 434L272.868 439L275.868 444L277.868 447L278.868 449L280.368 452L281.868 455L284.868 457.5L287.368 459.5L292.868 463L293.868 463.5L297.368 465.5L301.368 468L305.368 470L309.368 472L313.368 473.5L316.868 475L318.868 477L319.868 481V484V488L318.868 492L317.868 493L314.368 496L310.868 498L306.868 500.5L303.368 502L299.868 503.5L295.868 504.5L290.868 505.5L283.868 506L275.868 505.5L270.868 504.5L264.868 503L257.868 500.5L253.368 498L246.868 493.5L242.368 489L238.368 484.5L233.868 477L230.868 470.5L229.368 465.5L228.368 458.5L228.868 453L229.368 446.5L230.868 439L237.368 425L244.368 415L249.868 407.5L255.368 400.5L260.868 395.5L271.368 387L284.868 376.5L292.368 372L302.368 366L309.368 359.5L317.368 350.5L324.868 338L331.868 322L336.368 306.5L339.368 291L340.868 275.5L341.368 263.5V249L339.868 229L337.868 215L334.868 205L329.868 191L322.868 177.5L316.868 168.5Z" fill="white"/>
<path d="M476.592 226.604C485.04 231.869 492.735 239.859 495.604 249.604C495.761 252.612 495.722 255.595 495.604 258.604C494.752 258.583 493.901 258.562 493.023 258.54C489.81 258.472 486.597 258.422 483.383 258.384C482.002 258.364 480.621 258.337 479.241 258.302C466.814 257.995 457.643 260.357 447.073 266.729C446.479 267.076 445.886 267.422 445.275 267.78C442.653 269.32 440.098 270.918 437.567 272.604C434.315 273.229 434.315 273.229 430.562 272.604C426.907 269.492 424.081 266.173 422.557 261.604C421.889 253.092 422.002 245.962 426.56 238.604C426.972 237.907 427.385 237.209 427.81 236.491C438.27 220.723 460.551 218.634 476.592 226.604Z" fill="#432B12"/>
<path d="M297.238 226.827C302.615 231.094 307.64 236.583 308.818 243.596C308.995 245.838 309.053 248.043 309.046 250.292C309.044 251.085 309.041 251.879 309.039 252.697C308.77 261.322 305.668 267.912 299.352 273.854C296.476 275.604 296.476 275.604 294.506 275.409C292.112 274.461 290.905 273.304 289.096 271.479C279.307 262.788 269.208 259.81 256.471 258.666C249.907 258.014 249.907 258.014 247.362 255.753C245.527 251.461 245.649 247.626 247.323 243.366C252.27 233.918 258.934 226.506 269.224 223.003C278.994 221.261 288.745 221.353 297.238 226.827Z" fill="#432B12"/>
<path d="M754.769 561.399C756.6 560.031 758.006 559.721 760.269 559.399C761.816 559.179 762.913 558.624 764.269 559.399C764.988 559.81 765.296 560.218 765.769 560.899C766.369 561.762 766.39 562.418 766.769 563.399C768.328 567.43 768.66 569.887 770.269 573.899C771.96 578.114 772.48 580.814 775.269 584.399C777.39 587.125 778.913 588.456 781.769 590.399C784.803 592.462 786.821 593.145 790.269 594.399C792.941 595.37 794.923 594.793 797.269 596.399C798.636 597.334 799.654 597.86 800.269 599.399C800.849 600.849 800.751 601.913 800.269 603.399C799.918 604.482 799.487 605.015 798.769 605.899C797.164 607.875 795.589 608.349 793.269 609.399C790.335 610.726 788.294 610.295 785.269 611.399C781.988 612.596 780.029 613.258 777.269 615.399C774.424 617.606 772.878 619.178 771.269 622.399C769.745 625.449 770.101 627.592 769.269 630.899C768.183 635.217 769.533 638.87 766.269 641.899C764.795 643.266 763.711 643.878 761.769 644.399C759.695 644.955 758.155 645.426 756.269 644.399C754.269 643.31 754.19 641.481 753.269 639.399C751.58 635.582 752.613 632.851 751.269 628.899C749.779 624.516 748.835 621.866 745.769 618.399C743.182 615.473 741.184 614.294 737.769 612.399C732.422 609.431 727.25 612.06 722.769 607.899C721.138 606.384 719.846 605.549 719.269 603.399C718.653 601.104 719.139 599.488 720.269 597.399C722.477 593.316 727.021 594.768 731.269 592.899C737.025 590.367 741.548 590.56 745.769 585.899C749.469 581.813 749.412 578.089 751.269 572.899C752.851 568.479 751.007 564.207 754.769 561.399Z" fill="#5A9BFD"/>
</svg>
