<svg width="50" height="50" viewBox="0 0 50 50" fill="none" xmlns="http://www.w3.org/2000/svg">
<g clip-path="url(#clip0_53379_35514)">
<path d="M24.7676 0.619141C38.1044 0.619141 48.9159 11.4308 48.916 24.7676C48.916 38.1045 38.1045 48.916 24.7676 48.916C11.4308 48.9159 0.619141 38.1044 0.619141 24.7676C0.619261 11.4308 11.4308 0.619261 24.7676 0.619141Z" stroke="#1D1B20" stroke-width="1.23839"/>
<path d="M41.486 8.04946V41.486H8.04947V8.04946H41.486Z" stroke="#1D1B20" stroke-width="1.23839"/>
<mask id="path-3-inside-1_53379_35514" fill="white">
<path fill-rule="evenodd" clip-rule="evenodd" d="M42.0166 7.5174L24.7676 42.0154L7.51862 7.5174"/>
</mask>
<path d="M24.7676 42.0154L23.66 42.5692L24.7676 44.7845L25.8753 42.5692L24.7676 42.0154ZM40.909 6.96357L23.66 41.4616L25.8753 42.5692L43.1243 8.07122L40.909 6.96357ZM25.8753 41.4616L8.62627 6.96357L6.41097 8.07122L23.66 42.5692L25.8753 41.4616Z" fill="#1D1B20" mask="url(#path-3-inside-1_53379_35514)"/>
</g>
<defs>
<clipPath id="clip0_53379_35514">
<rect width="49.5356" height="49.5356" fill="white"/>
</clipPath>
</defs>
</svg>
