<svg width="48" height="46" viewBox="0 0 48 46" fill="none" xmlns="http://www.w3.org/2000/svg">
<path fill-rule="evenodd" clip-rule="evenodd" d="M12.1168 0.0509497C11.6309 0.114358 11.2843 0.222744 10.6266 0.516763C9.9362 0.825487 3.30039 4.18305 2.81769 4.46789C2.24625 4.80516 1.84862 5.13185 1.33743 5.68389C-0.0377229 7.16909 -0.368691 9.17925 0.420094 11.2547C0.489575 11.4377 0.797165 12.1048 1.10358 12.7371C1.40999 13.3694 1.75098 14.1404 1.86139 14.4504C2.40152 15.9669 2.4638 17.368 2.06348 18.9967C1.90605 19.637 1.86335 19.916 1.91057 19.9947C2.0399 20.2101 2.40479 20.3366 2.89706 20.3367C3.78918 20.3369 4.85301 19.8603 5.66478 19.0967C5.88173 18.8926 6.05927 18.7421 6.05927 18.7622C6.05927 18.7824 5.95285 19.1075 5.8228 19.4847C5.5082 20.397 4.86165 21.7565 3.96134 23.3988C2.64474 25.8005 2.31121 26.7775 2.30008 28.2651C2.29661 28.7283 2.31305 29.1271 2.33662 29.1514C2.3602 29.1756 2.64506 28.9762 2.96968 28.7083C3.51525 28.258 4.74443 27.4287 4.79302 27.4781C4.80461 27.4899 4.75877 27.617 4.69112 27.7605C4.52741 28.1081 4.19932 29.0968 4.0375 29.7305C3.48447 31.896 3.46004 34.0421 3.9673 35.906C4.27555 37.0386 4.75707 38.135 4.94632 38.135C4.99492 38.135 5.2065 37.7038 5.43616 37.1369C5.65856 36.588 5.96195 35.8994 6.11035 35.6066L6.38015 35.0744L6.38343 35.616C6.39502 37.5304 7.45531 39.8763 9.08926 41.6027C10.0015 42.5665 10.9928 43.2249 11.5315 43.2249H11.6978L11.5379 43.0087C11.1179 42.4404 10.6616 41.2315 10.4332 40.082C10.2206 39.0112 10.2215 36.9687 10.4351 35.8162C10.7915 33.8938 11.4612 32.4338 12.4388 31.4482C12.9693 30.9133 13.5299 30.5629 14.198 30.3484C14.9497 30.1072 14.9929 30.1158 15.0859 30.5251C15.2755 31.3597 15.9006 32.5015 16.5165 33.1381C16.8706 33.5043 17.4839 33.9323 17.8117 34.0423C17.9973 34.1045 18.0405 34.161 18.1068 34.4284C18.303 35.2204 18.9875 36.1667 19.7799 36.7411C22.0416 38.3809 25.9496 38.378 28.231 36.7349C28.6996 36.3975 29.2988 35.758 29.5428 35.335C29.6382 35.1696 29.7957 34.8268 29.8928 34.5734C30.0681 34.1156 30.0722 34.1111 30.5387 33.874C31.1457 33.5655 31.6435 33.0981 32.085 32.4224C32.4924 31.7988 32.7331 31.2747 32.9112 30.6237C32.9801 30.3714 33.0446 30.1577 33.0545 30.1486C33.0644 30.1396 33.2931 30.1909 33.5627 30.2626C35.3939 30.7495 36.7174 32.3599 37.3973 34.9285C38.0937 37.5594 37.7341 41.1266 36.5999 42.8391C36.4787 43.0221 36.3795 43.1837 36.3795 43.1983C36.3795 43.2129 36.4526 43.2249 36.5419 43.2249C36.9765 43.2249 37.8591 42.6918 38.6134 41.9737C40.431 40.243 41.6089 37.7531 41.6217 35.6146L41.6249 35.0744L41.8617 35.5401C41.992 35.7963 42.2926 36.4825 42.5298 37.0651C42.7669 37.6477 42.9904 38.1341 43.0264 38.1462C43.2217 38.2113 43.8079 36.8366 44.1032 35.6207C44.5422 33.8137 44.5446 32.1929 44.1115 30.1861C43.9984 29.6618 43.4832 28.0208 43.2883 27.5635C43.2426 27.4563 43.2817 27.4653 43.5563 27.6244C44.1039 27.9419 44.6427 28.3237 45.1662 28.7653C45.4764 29.0269 45.6858 29.1614 45.7131 29.1166C45.8126 28.953 45.8149 28.2464 45.718 27.6004C45.5237 26.3041 45.1055 25.2742 43.8627 23.0315C42.9314 21.3508 42.2688 19.9298 42.0746 19.1971C42.0358 19.0509 41.9859 18.8807 41.9636 18.8189C41.9413 18.7572 42.0681 18.8427 42.2455 19.0089C43.1488 19.8553 44.2024 20.3369 45.1503 20.3367C45.7479 20.3366 46.0939 20.1944 46.1235 19.9368C46.1341 19.8449 46.0518 19.3958 45.9407 18.9388C45.7987 18.3544 45.7275 17.871 45.7009 17.3095C45.633 15.8778 45.9086 14.8186 46.8693 12.8183C47.5811 11.3362 47.6788 11.0917 47.852 10.359C48.3584 8.21675 47.5477 6.12974 45.6844 4.77881C45.2801 4.48566 38.2975 0.879979 37.2077 0.401525C36.442 0.0654552 35.7063 -0.0646212 35.1065 0.0301249C34.2044 0.172643 33.4446 0.570191 32.7055 1.28638L32.3268 1.65345L31.6519 1.38571C30.3028 0.85057 28.9447 0.490017 27.3096 0.233058C26.2025 0.0590679 23.2211 -0.0101956 21.8119 0.105376C19.7185 0.27697 17.8037 0.728744 16.1225 1.44779L15.6752 1.63908L15.2554 1.25717C14.2489 0.341443 13.1441 -0.0831188 12.1168 0.0509497ZM23.2996 2.34182C22.0056 2.69586 21.098 3.74592 20.6528 5.40411C20.4514 6.15423 20.4474 7.9041 20.6446 9.09235C20.7205 9.54978 20.8878 10.5528 21.0165 11.3213C21.3438 13.2762 21.4487 14.2861 21.4482 15.4793C21.4472 18.1817 20.8349 19.6783 18.6306 22.3661C17.2574 24.0406 16.7167 24.9933 16.3883 26.3172C16.2682 26.8011 16.2458 27.0825 16.2443 28.1214C16.2422 29.5495 16.3459 30.0813 16.8118 31.0299C17.6394 32.7154 19.0858 33.2738 21.0884 32.681C22.6863 32.208 23.2822 31.6722 23.2822 30.7086V30.2772L22.8984 30.1966C21.3144 29.8642 20.0507 28.1573 20.1552 26.4913C20.2286 25.3207 20.9045 24.6403 22.3144 24.318C23.1239 24.1329 25.0229 24.1138 25.7707 24.2832C27.3855 24.649 28.0499 25.6378 27.7712 27.2608C27.6308 28.0782 27.266 28.7904 26.7237 29.3059C26.2447 29.7611 25.6218 30.0948 25.0418 30.2068C24.6579 30.2809 24.6574 30.2813 24.6574 30.5198C24.6574 30.9218 24.8464 31.4393 25.0954 31.7194C25.5537 32.2349 27.04 32.8148 28.0955 32.8899C29.3869 32.9818 30.2892 32.5229 31.0084 31.4083C31.7929 30.1926 32.0551 28.1669 31.6533 26.4248C31.3299 25.0224 30.7639 24.0127 29.3406 22.2996C27.6578 20.2743 26.9524 18.9045 26.652 17.0787C26.5588 16.5124 26.5454 16.1486 26.5776 15.0525C26.6262 13.4034 26.7055 12.8034 27.3256 9.39176C27.4688 8.60432 27.4957 8.2596 27.4997 7.16283C27.505 5.73732 27.4174 5.2214 27.0206 4.34121C26.3185 2.78348 24.7552 1.94348 23.2996 2.34182ZM16.0787 13.8408C15.0931 14.1335 14.4051 14.8493 14.149 15.848C13.7228 17.5107 14.7313 19.1747 16.3486 19.4769C17.395 19.6725 18.5908 19.0117 19.0667 17.9748C19.5289 16.9678 19.4102 15.6996 18.7736 14.8439C18.4717 14.4381 18.0081 14.0772 17.5942 13.926C17.1713 13.7715 16.4487 13.7309 16.0787 13.8408ZM30.7629 13.8162C30.0568 13.9681 29.3496 14.5407 28.9956 15.2469C27.9182 17.3963 29.6007 19.908 31.8052 19.441C33.5853 19.0639 34.4985 17.027 33.6614 15.3009C33.3717 14.7035 32.7999 14.1503 32.2602 13.9451C31.8412 13.7858 31.1719 13.7283 30.7629 13.8162ZM30.9267 14.9544C30.3606 15.0875 29.9708 15.4004 29.6922 15.9455C29.4607 16.3985 29.4727 17.1116 29.7205 17.6242C30.3834 18.9959 32.2359 18.9118 32.8614 17.4816C33.0477 17.0556 32.9985 16.279 32.7588 15.8636C32.3511 15.1567 31.6166 14.7921 30.9267 14.9544ZM16.0276 15.119C14.6626 15.8101 14.7905 17.9473 16.2303 18.506C16.8492 18.7461 17.6164 18.5356 18.0654 18.0026C18.8267 17.099 18.5342 15.5958 17.498 15.0861C17.0826 14.8818 16.4689 14.8955 16.0276 15.119ZM23.7079 33.4145C22.8772 33.9753 21.6821 34.3605 20.5809 34.4226C20.1937 34.4443 19.8769 34.4844 19.8769 34.5115C19.8769 34.5386 19.9752 34.7063 20.0953 34.8841C20.496 35.4777 21.3937 35.9759 22.4964 36.2169C23.3706 36.4079 24.9479 36.3781 25.7765 36.1549C26.8032 35.8782 27.598 35.3988 27.9411 34.8491C28.044 34.6842 28.1282 34.5297 28.1282 34.5058C28.1282 34.4819 27.8262 34.4441 27.457 34.422C27.0878 34.3998 26.55 34.3185 26.2619 34.2415C25.7666 34.109 24.6616 33.6096 24.2318 33.324L24.0353 33.1935L23.7079 33.4145ZM13.3325 40.7623C13.1345 41.5076 13.1016 41.8926 13.1947 42.3747C13.3201 43.0242 13.5651 43.4697 14.0894 44.0017C14.8485 44.7719 15.9756 45.2477 16.945 45.2072L17.4107 45.1877L16.823 44.7113C16.0811 44.1099 14.9701 42.9352 14.5272 42.2838C14.1212 41.6869 13.7569 40.9672 13.6446 40.5407C13.5998 40.3703 13.5429 40.2308 13.5183 40.2308C13.4937 40.2308 13.4101 40.47 13.3325 40.7623ZM34.3851 40.5635C34.1117 41.415 33.6364 42.2274 32.9165 43.0735C32.4643 43.6049 31.1833 44.8103 30.8623 45.0065C30.7632 45.0671 30.6822 45.1401 30.6822 45.1688C30.6822 45.2804 31.6549 45.2196 32.0997 45.0803C33.7816 44.5531 34.7933 43.4335 34.8608 42.0248C34.8879 41.4592 34.8004 40.9352 34.5931 40.4216L34.5027 40.1976L34.3851 40.5635ZM18.2949 43.1251C18.247 43.237 18.2088 43.5734 18.2081 43.8903C18.2071 44.3931 18.2284 44.4951 18.3999 44.8097C18.7454 45.4432 19.3056 45.8073 20.1664 45.9578C20.8068 46.0698 21.9811 45.9431 21.9697 45.7634C21.9682 45.7395 21.6498 45.5652 21.2622 45.3761C20.8746 45.1869 20.3233 44.8545 20.0371 44.6373C19.5302 44.2526 18.8028 43.5274 18.5206 43.1251L18.3805 42.9255L18.2949 43.1251ZM29.4097 43.2351C29.3427 43.3505 29.056 43.6782 28.7727 43.9633C28.0688 44.6717 27.0034 45.3777 26.2782 45.6163C26.1432 45.6607 26.0327 45.7235 26.0327 45.7559C26.0327 45.9289 27.1649 46.0577 27.8026 45.9571C28.6871 45.8177 29.342 45.3941 29.6702 44.7492C29.8393 44.4172 29.8695 43.7768 29.7357 43.3671C29.6742 43.1791 29.6031 43.0253 29.5778 43.0253C29.5524 43.0253 29.4768 43.1197 29.4097 43.2351Z" fill="#171C19"/>
</svg>
