<svg width="179" height="179" viewBox="0 0 179 179" fill="none" xmlns="http://www.w3.org/2000/svg">
<path d="M0 40.84C0 18.285 18.285 0 40.84 0H137.88C160.436 0 178.721 18.285 178.721 40.84V137.88C178.721 160.436 160.436 178.721 137.88 178.721H40.84C18.285 178.721 0 160.436 0 137.88V40.84Z" fill="black"/>
<path d="M47.4727 131.248C47.4727 119.681 56.8496 110.304 68.4166 110.304H89.3596V131.248C89.3596 142.815 79.9836 152.192 68.4166 152.192C56.8496 152.192 47.4727 142.815 47.4727 131.248Z" fill="#24CB71"/>
<path d="M89.3604 26.5291V68.416H110.304C121.871 68.416 131.248 59.0401 131.248 47.4731C131.248 35.9061 121.871 26.5291 110.304 26.5291H89.3604Z" fill="#FF7237"/>
<path d="M110.13 110.304C121.697 110.304 131.074 100.927 131.074 89.36C131.074 77.7931 121.697 68.4163 110.13 68.4163C98.5634 68.4163 89.1865 77.7931 89.1865 89.36C89.1865 100.927 98.5634 110.304 110.13 110.304Z" fill="#00B6FF"/>
<path d="M47.4727 47.4731C47.4727 59.0401 56.8496 68.4171 68.4166 68.4171H89.3596V26.5291H68.4166C56.8496 26.5291 47.4727 35.9061 47.4727 47.4731Z" fill="#FF3737"/>
<path d="M47.4727 89.36C47.4727 100.927 56.8496 110.304 68.4166 110.304H89.3596V68.417H68.4166C56.8496 68.417 47.4727 77.793 47.4727 89.36Z" fill="#874FFF"/>
</svg>
